<?xml version="1.0" encoding="utf-8"?>
<!-- Generator: Adobe Illustrator 25.2.1, SVG Export Plug-In . SVG Version: 6.00 Build 0)  -->
<svg version="1.1" id="Capa_1" xmlns="http://www.w3.org/2000/svg" xmlns:xlink="http://www.w3.org/1999/xlink" x="0px" y="0px"
	 viewBox="0 0 512 515" style="enable-background:new 0 0 512 515;" xml:space="preserve">
<style type="text/css">
	.st0{fill:#1E1B1A;}
	.st1{fill:#FFED00;}
	.st2{fill:#FAFBFD;}
	.st3{fill:#1F1B1A;}
</style>
<g>
	<g>
		<path class="st0" d="M95.03,347.54c-0.02-0.79-2.28-116.87-2.28-116.87l35.48-7c0,0,0.22,46.75,0.21,45.62
			c-0.02-1.13,14.23-48.49,14.23-48.49l36.92-6.81l-23.17,60.37L186.15,330l-36.62,7.1l-18.55-39.79l1.45,43.01L95.03,347.54z"/>
		<path class="st0" d="M100.7,347.54c0-0.83-1.9-97.6-2.27-116.99l-4.57,5.64l35.47-7l-6.76-5.49l0.18,45.59l5.66-5.6l5.7,5.56
			c0,0.55-0.07,0.91-0.08,1c0.52-2.51,8.91-30.67,14.05-47.84l0.02-0.13l0.04-0.13l-4.47,4.18l36.97-6.8l-6.35-7.56l-23.18,60.37
			l-0.88,2.41l1.2,2.24l29.68,55.63l3.94-8.16l-36.62,7.11l6.24,3.19l-18.56-39.82l-10.83,2.55l1.47,43.01l4.56-5.71l-37.38,7.25
			L100.7,347.54z M138.09,340.15l-1.46-43.02l-10.8,2.55l18.57,39.8l1.86,4.02l4.38-0.83l36.6-7.14l7.49-1.43l-3.57-6.72
			l-29.7-55.64l0.27,4.62l23.17-60.35l3.59-9.38l-9.92,1.84l-36.95,6.79l-3.4,0.64l-1.01,3.29c-14.46,48.2-14.46,49.11-14.46,50.14
			l0.07,5.64c0,0.03,5.65-0.02,5.65-0.02s5.64-0.11,5.64-6.15l-0.02-1.47l-0.03-5.19l-0.06-15.66l-0.09-22.85l-0.05-6.8l-6.74,1.3
			l-35.47,6.99L87,226.06l0.08,4.71c0.05,1.14,2.24,115.02,2.27,116.82l0.07,6.74c0,0.01,6.67-1.27,6.67-1.27l37.41-7.22l4.73-0.93
			L138.09,340.15z"/>
	</g>
	<g>
		<path class="st1" d="M95.49,347.46c-0.02-0.85-2.24-116.91-2.24-116.91l35.45-6.99c0,0,0.23,46.78,0.23,45.64
			c-0.02-1.11,14.2-48.52,14.2-48.52l36.95-6.79l-23.17,60.38l29.69,55.62l-36.59,7.12l-18.58-39.8l1.46,43.01L95.49,347.46z"/>
	</g>
	<g>
		<g>
			<path class="st1" d="M377.76,309.08c-20.03,46.46-66.22,79.19-120.39,79.72c-38.19,0.35-72.77-15.42-97.15-40.91l-20.17,3.58
				c27.8,33.78,70.18,55.16,117.52,54.74c65.28-0.63,120.4-42.67,140.36-100.73L377.76,309.08z"/>
			<path class="st0" d="M375.75,308.23c-20.32,47.11-66.76,77.92-118.39,78.39c-35.93,0.38-70.75-14.3-95.55-40.2l-0.82-0.82
				l-1.15,0.18l-20.15,3.6l-3.63,0.62l2.35,2.85c29.39,35.72,72.84,55.94,119.18,55.49c64.4-0.6,121.61-41.66,142.42-102.16
				l1.16-3.45l-3.62,0.64l-20.15,3.58l-1.15,0.23L375.75,308.23z M395.86,304.8c-20.19,58.76-75.78,98.65-138.34,99.24
				c-45,0.43-87.21-19.24-115.77-53.93l-1.31,3.47l20.18-3.58l-1.98-0.62c25.64,26.76,61.63,41.92,98.76,41.57
				c53.33-0.47,101.36-32.31,122.35-81.01l-1.62,1.28l20.17-3.61L395.86,304.8z"/>
		</g>
		<g>
			<path class="st1" d="M137.3,199.85c21.31-43.21,65.81-73.16,117.57-73.66c35.76-0.3,68.39,13.52,92.4,36.21l20.75-3.7
				c-27.77-30.96-68.31-50.33-113.33-49.87c-63.05,0.57-116.57,39.77-138.14,94.75L137.3,199.85z"/>
			<path class="st0" d="M139.26,200.79c21.8-44.21,66.11-71.97,115.62-72.42c33.97-0.32,66.27,12.31,90.87,35.6l0.8,0.73l1.08-0.21
				l20.77-3.68l3.82-0.69l-2.55-2.86c-29.26-32.59-71.15-51.01-114.98-50.6c-30.95,0.29-60.65,9.75-85.88,27.37
				c-24.61,17.19-43.39,40.99-54.32,68.74l-1.37,3.56l3.8-0.68l20.75-3.7l1.08-0.17L139.26,200.79z M118.55,204.3
				c10.62-26.94,28.84-50.05,52.77-66.74c24.5-17.14,53.34-26.31,83.4-26.59c42.58-0.42,83.29,17.49,111.68,49.16l1.22-3.54
				l-20.76,3.69l1.87,0.56c-25.45-24.04-58.78-37.13-93.9-36.78c-51.14,0.49-96.96,29.18-119.46,74.87l1.52-1.16l-20.72,3.69
				L118.55,204.3z"/>
		</g>
	</g>
	<g>
		<g>
			<polygon class="st1" points="17.56,215.69 493.16,127.38 492.51,145.43 20.26,233.68 			"/>
			<path class="st0" d="M17.98,217.86l475.6-88.3l-2.65-2.29l-0.65,18.07l1.83-2.11L19.83,231.49l2.64,1.86l-2.67-18.01
				L17.98,217.86z M20.67,235.85l472.26-88.23l1.77-0.34l0.06-1.78l0.66-18.05l0.11-2.77l-2.75,0.51l-475.6,88.32l-2.14,0.37
				l0.33,2.11l2.69,18l0.34,2.29L20.67,235.85z"/>
		</g>
		<g>
			<polygon class="st1" points="19.06,369.68 494.63,281.39 494.01,299.43 21.73,387.7 			"/>
			<path class="st0" d="M19.47,371.89l475.59-88.32l-2.64-2.28l-0.68,18.04l1.82-2.07L21.31,385.52l2.65,1.85l-2.68-18.01
				L19.47,371.89z M22.15,389.91l472.24-88.29l1.76-0.32l0.07-1.78l0.64-18.02l0.1-2.78l-2.73,0.51l-475.58,88.3l-2.13,0.4
				l0.32,2.07l2.67,18.04l0.34,2.3L22.15,389.91z"/>
		</g>
	</g>
	<g>
		<g>
			<g>
				<g>
					<path class="st2" d="M226.82,260.8l-15.4,2.78c-0.1-0.14-0.19-0.52-0.29-1.01c-0.1-0.58-0.18-1.24-0.22-2
						c-0.04-0.73-0.04-1.78,0.05-3.18c-0.63,2.27-2.31,4.38-5.11,6.36c-2.79,2.01-5.73,3.29-8.89,3.85
						c-3.12,0.55-5.8,0.28-8.07-0.87c-2.46-1.34-4.02-3.7-4.64-7.06c-0.18-0.92-0.28-1.93-0.3-3.01c0.19-6.85,3.39-12.27,9.55-16.25
						c4.26-2.77,9.8-4.75,16.63-5.99c0.28-1.13,0.35-2.11,0.22-2.85c-0.22-1.08-0.69-1.75-1.51-2.17c-0.77-0.41-1.72-0.5-2.76-0.31
						c-1.5,0.27-2.9,1.02-4.18,2.19c-1.24,1.2-1.96,2.63-2.18,4.25l-14.72,0.61c1.45-4.95,4.35-9.08,8.7-12.4
						c3.84-2.97,8.27-4.94,13.24-5.83c4.68-0.86,8.81-0.65,12.42,0.63c3.6,1.29,5.66,3.44,6.21,6.47c0.12,0.75,0.19,1.3,0.12,1.68
						l-0.69,27.44c0,0.28,0.02,0.69,0.1,1.23c0.07,0.51,0.15,0.97,0.2,1.3c0.14,0.89,0.42,1.72,0.78,2.52
						C226.46,259.98,226.72,260.54,226.82,260.8z M209.97,246.28l0.09-3.41c-3.49,1.29-6.11,2.74-7.76,4.39
						c-1.53,1.41-2.29,2.83-2.33,4.28c0.07,1.32,0.59,2.37,1.55,3.09c0.95,0.76,2.06,1.03,3.32,0.79c1.42-0.25,2.54-1.06,3.38-2.41
						C209.32,251.44,209.88,249.19,209.97,246.28z"/>
				</g>
			</g>
			<g>
				<g>
					<path class="st2" d="M256.1,224.83c-1.44-0.24-2.71-0.27-3.84-0.06c-2.07,0.36-3.74,1.4-4.93,3c-1.2,1.63-1.83,3.82-1.92,6.61
						l-0.53,23.18l-16.08,2.92l1.12-45.76l13.63-2.46l-0.23,7.76c0.86-3.51,2.27-6.22,4.2-8.15c1.88-1.93,4.21-3.12,6.97-3.63
						c0.26-0.27,0.47-0.44,0.68-0.46c0.53,0.07,1,0.1,1.35,0.1L256.1,224.83z"/>
				</g>
			</g>
			<g>
				<g>
					<path class="st2" d="M300.88,231.99c-1.19,5.58-3.85,10.23-7.94,13.98c-3.66,3.39-7.97,5.49-12.9,6.4
						c-5.07,0.91-9.67,0.21-13.78-2.12c-4.45-2.48-7.13-6.24-8.05-11.23c-0.23-1.28-0.34-2.64-0.3-4.11
						c0.14-7.44,2.17-14.02,6.09-19.72c4.06-6.1,9.43-9.74,16.03-10.93c5.85-1.04,10.48-0.3,13.93,2.33
						c3.3,2.48,5.45,6.44,6.43,11.88c0.49,2.69,0.67,5.79,0.54,9.36l-27,4.9c-0.06,0.98,0,1.9,0.13,2.8c0.38,1.91,1.1,3.27,2.19,4
						c1.11,0.75,2.4,0.98,3.97,0.72c1.59-0.32,3.04-1.09,4.19-2.37c1.21-1.3,1.79-2.85,1.75-4.66L300.88,231.99z M285.8,222.15
						c0.01-0.47,0.04-0.92,0-1.42c-0.01-0.51-0.06-0.96-0.18-1.38c-0.31-1.67-0.95-2.91-1.89-3.67c-0.95-0.76-2.03-1.01-3.28-0.8
						c-1.51,0.28-2.91,1.25-4.21,2.94c-1.32,1.67-2.05,3.85-2.25,6.44L285.8,222.15z"/>
				</g>
			</g>
			<g>
				<g>
					<path class="st2" d="M345.04,239.42l-15.98,2.87l0.77-30.9c0.03-0.2,0.01-0.36,0-0.56c-0.05-0.22-0.07-0.37-0.08-0.43
						c-0.15-0.76-0.46-1.27-1.02-1.57c-0.51-0.29-1.13-0.37-1.85-0.24c-1.06,0.19-2.07,0.76-3,1.66c-0.97,0.93-1.44,1.96-1.49,3.1
						l-0.74,30.29l-16.01,2.88l1.14-45.75l14.71-2.65l-0.09,4.93c1.04-2.17,2.7-4.02,4.91-5.57c2.23-1.55,4.63-2.53,7.14-2.99
						c2.99-0.54,5.48-0.15,7.44,1.09c2.39,1.49,3.92,4.01,4.56,7.51c0.24,1.38,0.36,2.93,0.38,4.63L345.04,239.42z"/>
				</g>
			</g>
			<g>
				<g>
					<path class="st2" d="M366.86,187.23l-7.73,15.36l-6.94,1.21l5.91-13.69l-4.89,0.89l0.38-14.73l13.5-2.46L366.86,187.23z"/>
				</g>
			</g>
			<g>
				<g>
					<path class="st2" d="M412.05,213.78c-0.05,4.84-2.22,8.98-6.42,12.53c-3.75,3.18-8.32,5.27-13.72,6.26
						c-5.09,0.92-9.5,0.61-13.27-0.87c-4.23-1.64-6.69-4.4-7.42-8.3c-0.13-0.59-0.17-1.04-0.13-1.31l12.37-4.34
						c0.34,1.71,1.41,2.85,3.19,3.43c1.55,0.46,3.37,0.49,5.53,0.07c1.72-0.29,3.12-0.76,4.27-1.42c1.16-0.6,1.72-1.23,1.65-1.89
						c0.09-1.87-1.75-2.78-5.57-2.75c-6.59-0.01-10.36-0.13-11.31-0.31c-4.29-0.9-6.87-3.43-7.59-7.54c-0.1-0.53-0.2-1.11-0.27-1.78
						c-0.04-0.64-0.04-1.32,0-2.07c0.17-5.29,2.12-9.77,5.86-13.46c3.49-3.41,7.69-5.54,12.6-6.44c4.27-0.77,8.2-0.4,11.77,1.07
						c3.6,1.5,6.08,4.09,7.44,7.8l-12.33,5.03c-0.62-1.4-1.54-2.33-2.77-2.84c-1.25-0.51-2.64-0.6-4.21-0.32
						c-1.3,0.2-2.38,0.67-3.31,1.26c-0.91,0.61-1.35,1.23-1.35,1.92c-0.01,1.85,1.82,2.66,5.5,2.41c5.91-0.41,9.65-0.45,11.21-0.11
						c4.33,0.89,6.95,3.76,7.82,8.58C411.9,210.06,412.05,211.86,412.05,213.78z"/>
				</g>
			</g>
		</g>
		<g>
			<g>
				<g>
					<path class="st0" d="M226.82,260.8l-15.4,2.78c-0.1-0.14-0.19-0.52-0.29-1.01c-0.1-0.58-0.18-1.24-0.22-2
						c-0.04-0.73-0.04-1.78,0.05-3.18c-0.63,2.27-2.31,4.38-5.11,6.36c-2.79,2.01-5.73,3.29-8.89,3.85
						c-3.12,0.55-5.8,0.28-8.07-0.87c-2.46-1.34-4.02-3.7-4.64-7.06c-0.18-0.92-0.28-1.93-0.3-3.01c0.19-6.85,3.39-12.27,9.55-16.25
						c4.26-2.77,9.8-4.75,16.63-5.99c0.28-1.13,0.35-2.11,0.22-2.85c-0.22-1.08-0.69-1.75-1.51-2.17c-0.77-0.41-1.72-0.5-2.76-0.31
						c-1.5,0.27-2.9,1.02-4.18,2.19c-1.24,1.2-1.96,2.63-2.18,4.25l-14.72,0.61c1.45-4.95,4.35-9.08,8.7-12.4
						c3.84-2.97,8.27-4.94,13.24-5.83c4.68-0.86,8.81-0.65,12.42,0.63c3.6,1.29,5.66,3.44,6.21,6.47c0.12,0.75,0.19,1.3,0.12,1.68
						l-0.69,27.44c0,0.28,0.02,0.69,0.1,1.23c0.07,0.51,0.15,0.97,0.2,1.3c0.14,0.89,0.42,1.72,0.78,2.52
						C226.46,259.98,226.72,260.54,226.82,260.8z M209.97,246.28l0.09-3.41c-3.49,1.29-6.11,2.74-7.76,4.39
						c-1.53,1.41-2.29,2.83-2.33,4.28c0.07,1.32,0.59,2.37,1.55,3.09c0.95,0.76,2.06,1.03,3.32,0.79c1.42-0.25,2.54-1.06,3.38-2.41
						C209.32,251.44,209.88,249.19,209.97,246.28z"/>
				</g>
				<g>
					<path class="st0" d="M225.88,255.78l-15.37,2.78l5.46,2.63c0.2,0.38,0.28,0.7,0.29,0.72c0,0-0.04-0.07-0.04-0.21
						c-0.07-0.47-0.14-0.87-0.15-1.34c-0.03-0.37-0.06-1.22,0.05-2.67l-10.12-1.61c-0.3,1.07-1.37,2.31-3.12,3.58
						c-2.2,1.55-4.43,2.5-6.85,2.94c-1.97,0.36-3.53,0.23-4.8-0.39l0.14,0.08c-0.42-0.25-1.57-0.86-2.06-3.52
						c-0.09-0.64-0.19-1.4-0.19-2.16v0.24c0.15-5.21,2.41-9.05,7.17-12.16c3.68-2.37,8.65-4.1,14.8-5.22l3.31-0.6l0.77-3.26
						c0.42-1.87,0.5-3.48,0.24-4.95c-0.48-2.62-1.99-4.68-4.22-5.81c-1.86-0.89-3.86-1.13-6-0.76c-2.52,0.46-4.83,1.67-6.8,3.52
						c-2.14,1.98-3.41,4.54-3.76,7.37l4.9-4.53l-14.72,0.59l5.12,6.55c1.19-3.93,3.42-7.14,6.91-9.78
						c3.29-2.53,6.86-4.09,11.06-4.86c3.74-0.7,7.03-0.57,9.75,0.42c2.6,0.94,2.77,2.02,2.9,2.55c0.04,0.33,0.06,0.47,0.06,0.47
						s-0.02-0.19,0.05-0.5l-0.07,0.35v0.32l-0.72,27.42c0,0.58,0.06,1.25,0.17,2.03c0.06,0.61,0.15,1.13,0.23,1.55
						c0.23,1.27,0.59,2.49,1.15,3.66c0.43,0.97,0.61,1.42,0.63,1.48L225.88,255.78z M230.79,257.11c-0.2-0.46-0.33-0.9-0.43-1.34
						c-0.03-0.18-0.08-0.54-0.16-1.09c-0.05-0.35-0.06-0.5-0.06-0.5s0,0.02,0,0.03l0.71-27.42l-0.07,0.67
						c0.14-0.98,0.1-2.02-0.13-3.4c-0.63-3.39-2.79-7.93-9.54-10.35c-4.48-1.57-9.53-1.84-15.07-0.81c-5.76,1-10.97,3.3-15.47,6.78
						c-5.2,3.95-8.76,9.01-10.49,15.02l-2.01,6.8l7.12-0.31l14.77-0.54l4.4-0.23l0.47-4.33c0.06-0.36,0.18-0.71,0.6-1.13
						c0.73-0.63,1.24-0.79,1.57-0.88c0.05,0,0.07,0,0.07,0c-0.05,0-0.26,0-0.5-0.1c-0.78-0.42-1.21-1.12-1.31-1.56
						c-0.01-0.03-0.01-0.06-0.01-0.06s0.01,0.26-0.13,0.9l4.1-3.88c-7.49,1.37-13.71,3.59-18.54,6.71
						c-7.54,4.89-11.63,11.95-11.85,20.42v0.09v0.11c0,1.35,0.13,2.65,0.34,3.85c1.13,6.16,4.54,9.18,7.24,10.64l0.08,0.02
						l0.06,0.04c3.26,1.66,7.07,2.12,11.27,1.35c3.96-0.7,7.65-2.29,11.02-4.72c3.75-2.68,6.09-5.73,7.03-9.16l-10.08-1.6
						c-0.11,1.45-0.11,2.68-0.05,3.68c0.05,0.92,0.15,1.76,0.29,2.65c0.21,1.08,0.44,1.84,0.8,2.51l1.78,3.3l3.69-0.67l15.37-2.8
						l6.19-1.12l-2.34-5.8C231.46,258.62,231.22,258.05,230.79,257.11z"/>
				</g>
				<g>
					<path class="st0" d="M215.11,246.44l0.09-3.44l0.22-7.58l-7.16,2.65c-4.22,1.57-7.34,3.36-9.56,5.47
						c-2.47,2.39-3.76,5.01-3.86,7.85v0.2v0.16c0.15,2.78,1.39,5.23,3.47,6.86c2.09,1.67,4.74,2.32,7.47,1.83
						c2.88-0.5,5.23-2.17,6.82-4.79l-0.15,0.24C214.12,253.5,215.02,250.32,215.11,246.44z M203.83,250.32
						c-0.08,0.13-0.13,0.19-0.13,0.19c0.06-0.05,0.18-0.1,0.23-0.1l0,0c0.18-0.04,0.55,0.05,0.8,0.24c0.21,0.19,0.38,0.51,0.38,0.66
						c0,0,0-0.01,0-0.02v0.38c0,0.09-0.01,0.14-0.01,0.15c0,0,0.15-0.31,0.72-0.88c0.82-0.78,2.53-1.99,6.04-3.32l-6.93-4.9
						l-0.11,3.45c-0.08,2.53-0.61,3.6-0.85,3.95l-0.07,0.1L203.83,250.32z"/>
				</g>
			</g>
			<g>
				<g>
					<path class="st0" d="M256.1,224.83c-1.44-0.24-2.71-0.27-3.84-0.06c-2.07,0.36-3.74,1.4-4.93,3c-1.2,1.63-1.83,3.82-1.92,6.61
						l-0.53,23.18l-16.08,2.92l1.12-45.76l13.63-2.46l-0.23,7.76c0.86-3.51,2.27-6.22,4.2-8.15c1.88-1.93,4.21-3.12,6.97-3.63
						c0.26-0.27,0.47-0.44,0.68-0.46c0.53,0.07,1,0.1,1.35,0.1L256.1,224.83z"/>
				</g>
				<g>
					<path class="st0" d="M256.94,219.81c-2.07-0.35-3.89-0.38-5.61-0.08c-3.36,0.6-6.2,2.36-8.17,5.03
						c-1.77,2.5-2.77,5.66-2.91,9.44c0,0.05-0.51,23.26-0.51,23.26l4.22-4.91l-16.08,2.91l6.06,5.14l1.13-45.77l-4.22,4.9l13.6-2.48
						l-6.06-5.15l-0.21,7.82l10.13,1.32c0.63-2.61,1.59-4.53,2.82-5.77c1.16-1.19,2.57-1.91,4.27-2.21l1.73-0.29l1.18-1.3
						c-0.12,0.07-0.91,0.91-2.34,1.13l-1.51,0.02c0.79,0.1,1.44,0.16,2.05,0.16l-5.17-5.23l-0.43,16.92L256.94,219.81z
						 M256.49,202.79L256.49,202.79c0,0-0.22,0-0.7-0.07l-0.75-0.1l-0.75,0.14c-1.33,0.21-2.57,0.9-3.6,2.06l2.87-1.6
						c-3.76,0.7-7.04,2.4-9.73,5.06c-2.55,2.55-4.42,6.13-5.5,10.57l10.13,1.3l0.21-7.76l0.16-6.28l-6.22,1.12l-13.62,2.47
						l-4.1,0.73l-0.12,4.15l-1.11,45.76l-0.15,6.26l6.19-1.11l16.1-2.93l4.11-0.73l0.07-4.18l0.59-23.19
						c0.02-1.61,0.35-2.94,0.92-3.71c0.28-0.4,0.7-0.8,1.66-0.95c0.38-0.08,1.04-0.13,2.08,0.06l5.84,0.97l0.14-5.91l0.45-16.92
						l0.12-5.25L256.49,202.79z"/>
				</g>
			</g>
			<g>
				<g>
					<path class="st0" d="M300.88,231.99c-1.19,5.58-3.85,10.23-7.94,13.98c-3.66,3.39-7.97,5.49-12.9,6.4
						c-5.07,0.91-9.67,0.21-13.78-2.12c-4.45-2.48-7.13-6.24-8.05-11.23c-0.23-1.28-0.34-2.64-0.3-4.11
						c0.14-7.44,2.17-14.02,6.09-19.72c4.06-6.1,9.43-9.74,16.03-10.93c5.85-1.04,10.48-0.3,13.93,2.33
						c3.3,2.48,5.45,6.44,6.43,11.88c0.49,2.69,0.67,5.79,0.54,9.36l-27,4.9c-0.06,0.98,0,1.9,0.13,2.8c0.38,1.91,1.1,3.27,2.19,4
						c1.11,0.75,2.4,0.98,3.97,0.72c1.59-0.32,3.04-1.09,4.19-2.37c1.21-1.3,1.79-2.85,1.75-4.66L300.88,231.99z M285.8,222.15
						c0.01-0.47,0.04-0.92,0-1.42c-0.01-0.51-0.06-0.96-0.18-1.38c-0.31-1.67-0.95-2.91-1.89-3.67c-0.95-0.76-2.03-1.01-3.28-0.8
						c-1.51,0.28-2.91,1.25-4.21,2.94c-1.32,1.67-2.05,3.85-2.25,6.44L285.8,222.15z"/>
				</g>
				<g>
					<path class="st0" d="M295.87,230.9c-0.99,4.58-3.08,8.28-6.41,11.31c-2.97,2.73-6.34,4.41-10.34,5.13
						c-3.89,0.71-7.29,0.2-10.31-1.54c-3.16-1.74-4.92-4.2-5.54-7.69c-0.18-0.97-0.26-1.95-0.2-3.04
						c0.11-6.58,1.79-12.15,5.16-17.02c3.33-4.97,7.48-7.84,12.73-8.78c4.4-0.8,7.61-0.35,9.9,1.38c2.22,1.68,3.73,4.63,4.49,8.71
						c0.42,2.33,0.57,5.07,0.46,8.28l4.22-4.87l-27.02,4.91l-3.96,0.73l-0.24,4c-0.08,1.38-0.01,2.71,0.21,3.97
						c0.61,3.36,2.1,5.84,4.38,7.39c2.21,1.49,4.89,2.01,7.75,1.49c2.78-0.52,5.22-1.88,7.12-3.97c2.04-2.22,3.12-5.06,3.07-8.17
						l-4.73,5.18l14.74-1.22L295.87,230.9z M281.02,233.28c0,0.59-0.14,0.86-0.39,1.13c-0.41,0.46-0.83,0.69-1.38,0.8
						c-0.18,0.02-0.28,0-0.28,0s0.11,0.04,0.18,0.12c0.13,0.06,0.24,0.19,0.24,0.24c0,0-0.14-0.3-0.28-0.96
						c-0.08-0.49-0.12-1.04-0.06-1.59l-4.21,4.72l27.02-4.87l4.07-0.77l0.13-4.09c0.16-3.99-0.06-7.44-0.62-10.46
						c-1.22-6.71-4.04-11.73-8.38-15.03c-4.62-3.5-10.68-4.61-17.98-3.28c-7.99,1.45-14.52,5.85-19.37,13.11
						c-4.43,6.44-6.79,14.03-6.95,22.49c-0.01,1.71,0.09,3.43,0.39,5.07c1.19,6.45,4.85,11.59,10.56,14.79
						c5.15,2.9,10.95,3.82,17.27,2.64c5.88-1.05,11.09-3.6,15.47-7.63c4.84-4.46,8.03-10.06,9.48-16.66l1.44-6.72l-6.91,0.55
						l-14.7,1.24l-4.81,0.4L281.02,233.28z"/>
				</g>
				<g>
					<path class="st0" d="M290.89,222.54c0.07-0.76,0.09-1.45,0.04-2.2v0.13c-0.04-0.74-0.08-1.4-0.24-2.04
						c-0.5-2.9-1.79-5.16-3.7-6.7c-2.14-1.73-4.69-2.34-7.4-1.89c-2.84,0.51-5.35,2.13-7.43,4.87c-1.92,2.52-3,5.6-3.28,9.19
						l-0.46,6.56l6.49-1.18l11.82-2.13l3.89-0.69L290.89,222.54z M279.14,224.63c0.11-1.6,0.53-2.85,1.19-3.73
						c0.65-0.87,1.04-0.99,1.04-0.99l0,0c-0.22,0.05-0.63-0.09-0.86-0.24c-0.13-0.13-0.18-0.18-0.18-0.18s0.14,0.2,0.26,0.82
						c0.01,0.1,0.03,0.32,0.04,0.66v0.09v0.04c0.04,0.21,0.01,0.39,0,0.63l4.24-4.62l-11.8,2.11L279.14,224.63z"/>
				</g>
			</g>
			<g>
				<g>
					<path class="st0" d="M345.04,239.42l-15.98,2.87l0.77-30.9c0.03-0.2,0.01-0.36,0-0.56c-0.05-0.22-0.07-0.37-0.08-0.43
						c-0.15-0.76-0.46-1.27-1.02-1.57c-0.51-0.29-1.13-0.37-1.85-0.24c-1.06,0.19-2.07,0.76-3,1.66c-0.97,0.93-1.44,1.96-1.49,3.1
						l-0.74,30.29l-16.01,2.88l1.14-45.75l14.71-2.65l-0.09,4.93c1.04-2.17,2.7-4.02,4.91-5.57c2.23-1.55,4.63-2.53,7.14-2.99
						c2.99-0.54,5.48-0.15,7.44,1.09c2.39,1.49,3.92,4.01,4.56,7.51c0.24,1.38,0.36,2.93,0.38,4.63L345.04,239.42z"/>
				</g>
				<g>
					<path class="st0" d="M344.12,234.41l-16,2.86l6.09,5.16l0.76-30.93l-0.05,0.64c0.13-0.76,0.1-1.54-0.05-2.34l0.05,0.28
						c-0.1-0.45-0.14-0.82-0.25-1.24l0.15,0.66c-0.44-2.27-1.7-4.12-3.61-5.14c-1.56-0.88-3.4-1.15-5.28-0.8
						c-2.03,0.35-3.95,1.4-5.65,3.04c-1.88,1.82-2.95,4.11-3.02,6.58c-0.02,0.04-0.74,30.33-0.74,30.33l4.23-4.89l-16.04,2.88
						l6.07,5.14l1.14-45.76l-4.22,4.91l14.72-2.68l-6.07-5.1l-0.08,4.89l9.77,2.32c0.66-1.36,1.71-2.54,3.26-3.6
						c1.59-1.12,3.27-1.83,5.07-2.15c1.63-0.28,2.92-0.17,3.75,0.38c0.46,0.26,1.71,1.05,2.27,4.14c0.18,1.06,0.31,2.31,0.31,3.75
						v-0.17l-0.78,31.7L344.12,234.41z M350.98,207.67c-0.01-2.02-0.19-3.87-0.47-5.48c-0.92-4.97-3.24-8.67-6.89-10.94
						c-3.05-1.95-6.78-2.56-11.1-1.82c-3.23,0.61-6.32,1.91-9.14,3.82c-2.95,2.09-5.17,4.64-6.62,7.6l9.79,2.29l0.07-4.91l0.13-6.23
						l-6.17,1.11l-14.75,2.67l-4.11,0.75l-0.09,4.16l-1.14,45.71l-0.15,6.28l6.22-1.11l16.02-2.91l4.11-0.74l0.1-4.16l0.73-30.27
						c0,0.21-0.1,0.43-0.15,0.48c0,0,0.05-0.01,0.07-0.07c0.28-0.25,0.41-0.31,0.41-0.31l-0.08,0.03c-0.33,0.04-0.94,0.03-1.53-0.33
						c-0.93-0.49-1.44-1.34-1.57-1.96l0.08,0.31l0.09,0.32c-0.08-0.29-0.16-0.52-0.16-0.54c0,0.02,0,0.07,0.07,0.16l0.01,0.14
						l0.02,0.13c-0.11-0.41-0.11-0.83-0.04-1.25l-0.07,0.31l-0.01,0.33l-0.74,30.92l-0.19,6.3l6.25-1.15l15.96-2.87l4.12-0.77
						l0.09-4.17l0.82-31.68v-0.07V207.67z"/>
				</g>
			</g>
			<g>
				<g>
					<path class="st0" d="M366.86,187.23l-7.73,15.36l-6.94,1.21l5.91-13.69l-4.89,0.89l0.38-14.73l13.5-2.46L366.86,187.23z"/>
				</g>
				<g>
					<path class="st0" d="M362.25,184.96l-7.69,15.38l3.73-2.76l-6.95,1.16l5.6,7.05l5.9-13.68l3.77-8.78l-9.46,1.75l-4.87,0.94
						l6.08,5.12l0.37-14.74l-4.23,4.88l13.52-2.44l-6.05-5.12l-0.27,13.41L362.25,184.96z M366.2,168.77l-13.52,2.45l-4.12,0.77
						l-0.11,4.13l-0.36,14.76l-0.15,6.3l6.24-1.14l4.87-0.91l-5.68-7.02l-5.88,13.67l-3.72,8.62l9.32-1.57l6.95-1.19l2.58-0.46
						l1.13-2.31l7.72-15.36l0.52-1.04l0.04-1.16l0.22-13.42l0.12-6.24L366.2,168.77z"/>
				</g>
			</g>
			<g>
				<g>
					<path class="st0" d="M412.05,213.78c-0.05,4.84-2.22,8.98-6.42,12.53c-3.75,3.18-8.32,5.27-13.72,6.26
						c-5.09,0.92-9.5,0.61-13.27-0.87c-4.23-1.64-6.69-4.4-7.42-8.3c-0.13-0.59-0.17-1.04-0.13-1.31l12.37-4.34
						c0.34,1.71,1.41,2.85,3.19,3.43c1.55,0.46,3.37,0.49,5.53,0.07c1.72-0.29,3.12-0.76,4.27-1.42c1.16-0.6,1.72-1.23,1.65-1.89
						c0.09-1.87-1.75-2.78-5.57-2.75c-6.59-0.01-10.36-0.13-11.31-0.31c-4.29-0.9-6.87-3.43-7.59-7.54c-0.1-0.53-0.2-1.11-0.27-1.78
						c-0.04-0.64-0.04-1.32,0-2.07c0.17-5.29,2.12-9.77,5.86-13.46c3.49-3.41,7.69-5.54,12.6-6.44c4.27-0.77,8.2-0.4,11.77,1.07
						c3.6,1.5,6.08,4.09,7.44,7.8l-12.33,5.03c-0.62-1.4-1.54-2.33-2.77-2.84c-1.25-0.51-2.64-0.6-4.21-0.32
						c-1.3,0.2-2.38,0.67-3.31,1.26c-0.91,0.61-1.35,1.23-1.35,1.92c-0.01,1.85,1.82,2.66,5.5,2.41c5.91-0.41,9.65-0.45,11.21-0.11
						c4.33,0.89,6.95,3.76,7.82,8.58C411.9,210.06,412.05,211.86,412.05,213.78z"/>
				</g>
				<g>
					<path class="st0" d="M406.91,213.69c-0.07,3.36-1.51,6.14-4.58,8.67c-3.12,2.68-6.82,4.34-11.33,5.19
						c-4.09,0.72-7.62,0.54-10.47-0.6c-3.26-1.26-3.98-2.94-4.26-4.47c-0.04-0.33-0.04-0.42-0.04-0.43c0,0,0,0.14,0,0.36l-3.45,4.47
						l12.4-4.32l-6.77-3.92c0.64,3.51,3.06,6.23,6.62,7.39l0.09,0.04l0.08,0.05c2.34,0.65,5.04,0.71,7.94,0.2
						c2.25-0.45,4.21-1.1,5.82-1.99c4.07-2.21,4.44-5.24,4.25-6.88l0.03,0.71c0.1-2.01-0.6-3.88-1.98-5.31
						c-2.45-2.5-6.17-2.78-8.76-2.77c-8.2-0.01-9.96-0.18-10.3-0.24c0,0,0.05,0,0.15,0.04c-2.64-0.53-3.34-1.7-3.64-3.47
						c-0.08-0.4-0.16-0.86-0.2-1.32c-0.02-0.35-0.02-0.79,0-1.2l0.01-0.09v-0.16c0.15-3.96,1.56-7.25,4.35-10
						c2.71-2.66,5.97-4.3,9.88-5.03c3.29-0.59,6.19-0.33,8.9,0.8c2.25,0.9,3.71,2.43,4.57,4.79l2.88-6.44l-12.34,5l6.69,2.69
						c-1.15-2.6-3.08-4.52-5.54-5.53c-2.23-0.86-4.6-1.08-7.12-0.59c-1.88,0.31-3.65,0.99-5.21,2.03c-3.16,2.14-3.61,4.78-3.62,6.15
						c-0.01,2,0.75,3.88,2.23,5.23c2.53,2.42,6.21,2.45,8.75,2.28c7.73-0.5,9.55-0.26,9.84-0.2c1.47,0.3,3.14,0.94,3.79,4.46
						C406.77,210.67,406.91,212.15,406.91,213.69z M416.64,207.47c-1.25-6.87-5.44-11.34-11.81-12.7c-1.54-0.26-4.19-0.5-12.6,0.09
						c-1.35,0.08-1.83-0.05-1.85-0.09c0.77,0.24,1.85,1.42,1.83,2.78c0,1.28-0.71,2.09-0.93,2.31l0.03-0.02
						c0.3-0.2,0.75-0.38,1.31-0.48c0.46-0.07,0.98-0.13,1.36,0.02c-0.07-0.03-0.1-0.08-0.14-0.08c0,0,0.07,0.06,0.15,0.25l2.02,4.56
						l4.61-1.87l12.35-5.04l4.56-1.85l-1.7-4.6c-1.81-5.02-5.37-8.75-10.26-10.79c-4.52-1.85-9.44-2.33-14.7-1.36
						c-5.9,1.08-11.03,3.68-15.26,7.8c-4.69,4.65-7.18,10.36-7.4,16.98l0.04-0.25c-0.1,0.98-0.1,1.93,0,2.9
						c0.05,0.76,0.14,1.5,0.28,2.23c1.13,6.19,5.27,10.3,11.64,11.59c0.95,0.26,2.72,0.46,12.32,0.46c1.53-0.01,2.02,0.16,2.02,0.16
						c-0.58-0.22-1.63-1.33-1.58-2.76v0.39l0.05,0.38c-0.18-1.67,0.68-2.83,1.13-3.15c0,0-0.04,0.01-0.14,0.08
						c-0.47,0.26-1.27,0.6-2.72,0.86c-1.69,0.3-2.69,0.19-3.24,0.05l0.21,0.02c-0.11-0.01-0.14-0.02-0.14-0.02
						c0.14,0.09,0.39,0.37,0.42,0.56c0,0,0,0,0-0.02l-1.05-5.89l-5.72,1.99l-12.37,4.32l-3.2,1.11l-0.24,3.37
						c-0.07,0.91,0.06,1.74,0.22,2.58c0.73,3.94,3.13,9.25,10.6,12.14c4.65,1.83,10.08,2.21,16.09,1.12
						c6.25-1.16,11.68-3.62,16.12-7.42c5.33-4.47,8.1-9.97,8.22-16.3C417.2,211.59,417.02,209.43,416.64,207.47z"/>
				</g>
			</g>
		</g>
		<g>
			<g>
				<g>
					<path class="st3" d="M226.52,259.13l-15.4,2.8l1.8,0.86c0.03,0.03,0.06,0.1,0.06,0.1c-0.01-0.02-0.06-0.18-0.15-0.61
						c-0.1-0.58-0.17-1.15-0.2-1.76c0-0.53-0.02-1.5,0.03-3.03l-3.35-0.53c-0.51,1.87-2.02,3.68-4.47,5.45
						c-2.52,1.8-5.29,2.99-8.19,3.54c-2.74,0.47-5.02,0.26-6.97-0.74c-1.97-1.07-3.21-2.97-3.72-5.86
						c-0.17-0.83-0.27-1.75-0.27-2.73c0.17-6.26,3.03-11.11,8.73-14.8c4.04-2.62,9.45-4.55,16.04-5.76l1.11-0.19l0.25-1.06
						c0.32-1.41,0.38-2.57,0.2-3.6c-0.37-1.96-1.49-2.91-2.38-3.35c-1.17-0.56-2.45-0.72-3.86-0.45c-1.84,0.35-3.56,1.21-5.02,2.63
						c-1.57,1.48-2.48,3.23-2.7,5.28l1.61-1.5l-14.75,0.58l1.74,2.21c1.34-4.58,4.06-8.47,8.1-11.58c3.64-2.79,7.87-4.63,12.5-5.46
						c4.36-0.8,8.25-0.58,11.54,0.54c2.99,1.1,4.66,2.79,5.11,5.17c0.12,0.85,0.12,1.12,0.1,1.13v0.12v0.09l-0.73,27.44
						c0,0.39,0.07,0.89,0.11,1.47c0.1,0.57,0.17,1.04,0.22,1.43c0.18,0.99,0.47,1.97,0.91,2.9c0.44,0.94,0.66,1.46,0.7,1.55
						L226.52,259.13z M227.66,258.5c-0.32-0.71-0.53-1.39-0.67-2.14c-0.06-0.32-0.11-0.72-0.16-1.23c-0.09-0.6-0.09-0.89-0.09-0.97
						l0.67-27.47v0.25c0.1-0.58,0.06-1.28-0.11-2.27c-0.68-3.61-3.14-6.22-7.33-7.74c-3.88-1.38-8.35-1.61-13.3-0.7
						c-5.19,0.93-9.91,2.99-13.99,6.12c-4.63,3.51-7.76,8-9.29,13.29l-0.66,2.25l2.36-0.06l14.79-0.62l1.42-0.06l0.18-1.44
						c0.13-1.25,0.69-2.31,1.63-3.21c1.03-0.95,2.11-1.55,3.32-1.75c0.67-0.14,1.24-0.06,1.67,0.16c0.14,0.03,0.44,0.19,0.57,0.91
						c0.1,0.53,0.02,1.25-0.18,2.18l1.38-1.29c-7.05,1.29-12.86,3.36-17.32,6.26c-6.61,4.26-10.08,10.19-10.28,17.61
						c0,1.22,0.13,2.34,0.29,3.36c0.72,3.87,2.6,6.67,5.54,8.24c2.63,1.35,5.72,1.69,9.17,1.07c3.42-0.62,6.66-2.01,9.61-4.13
						c3.08-2.22,5.03-4.67,5.76-7.29l-3.37-0.53c-0.08,1.29-0.09,2.47-0.04,3.34c0.04,0.75,0.1,1.47,0.25,2.21
						c0.1,0.7,0.27,1.2,0.46,1.55l0.59,1.06l1.23-0.22l15.39-2.77l2.05-0.37l-0.79-1.97C228.3,259.98,228.09,259.44,227.66,258.5z"
						/>
				</g>
				<g>
					<path class="st3" d="M211.67,246.33l0.11-3.44l0.06-2.53l-2.38,0.91c-3.78,1.4-6.51,2.94-8.39,4.75
						c-1.81,1.73-2.77,3.57-2.8,5.47v0.06v0.06c0.07,1.79,0.85,3.29,2.14,4.34c1.36,1.09,2.98,1.45,4.75,1.16
						c1.9-0.35,3.41-1.45,4.52-3.21C210.9,252.12,211.6,249.56,211.67,246.33z M206.77,252.12c-0.6,0.95-1.3,1.46-2.23,1.64
						c-0.78,0.14-1.42,0-1.95-0.45c-0.56-0.45-0.86-1.04-0.9-1.85v0.14c0.04-1,0.62-2.04,1.78-3.13c1.51-1.43,3.93-2.81,7.2-4.01
						l-2.31-1.64l-0.1,3.42C208.22,248.82,207.73,250.75,206.77,252.12z"/>
				</g>
			</g>
			<g>
				<g>
					<path class="st3" d="M256.39,223.13c-1.67-0.27-3.12-0.28-4.45-0.02c-2.51,0.45-4.53,1.67-6.02,3.69
						c-1.38,1.9-2.12,4.43-2.22,7.51c0,0.01-0.56,23.21-0.56,23.21l1.4-1.61l-16.04,2.91l2.01,1.74l1.12-45.8l-1.39,1.67l13.6-2.47
						l-2.03-1.71l-0.18,7.78l3.4,0.45c0.78-3.21,2.03-5.71,3.71-7.36c1.68-1.69,3.67-2.74,6.09-3.19l0.56-0.08l0.37-0.42
						c0.11-0.08,0.12-0.13,0.12-0.13s-0.15,0.14-0.44,0.21l-0.5,0.01c0.65,0.05,1.15,0.1,1.59,0.1l-1.71-1.75l-0.43,16.94
						L256.39,223.13z M256.51,206.21c-0.19,0-0.56-0.04-1.13-0.09l-0.26-0.07l-0.29,0.07c-0.73,0.11-1.26,0.62-1.61,0.97l0.98-0.52
						c-3.08,0.57-5.73,1.94-7.91,4.12c-2.11,2.11-3.69,5.13-4.62,8.94l3.38,0.46l0.2-7.78l0.04-2.11l-2.03,0.4l-13.64,2.42
						l-1.38,0.28l-0.02,1.41l-1.14,45.73l-0.05,2.1l2.07-0.38l16.09-2.92l1.35-0.22l0.04-1.4l0.53-23.19
						c0.08-2.39,0.61-4.28,1.61-5.64c0.92-1.26,2.19-2.04,3.84-2.31c0.92-0.15,2-0.15,3.23,0.03l1.98,0.35l0.04-1.97l0.41-16.94
						l0.04-1.76L256.51,206.21z"/>
				</g>
			</g>
			<g>
				<g>
					<path class="st3" d="M299.21,231.62c-1.11,5.2-3.61,9.6-7.42,13.1c-3.41,3.11-7.45,5.14-12.04,5.97
						c-4.66,0.84-8.93,0.19-12.64-1.91c-4.02-2.25-6.38-5.55-7.24-10.08c-0.2-1.17-0.28-2.42-0.25-3.72
						c0.14-7.11,2.09-13.46,5.78-18.84c3.84-5.74,8.72-9.06,14.93-10.19c5.32-0.97,9.57-0.29,12.58,1.99
						c2.95,2.22,4.9,5.88,5.78,10.83c0.47,2.56,0.66,5.56,0.53,9l1.39-1.6l-26.99,4.87l-1.34,0.24l-0.07,1.35
						c-0.07,1.08,0,2.17,0.18,3.17c0.41,2.41,1.41,4.13,2.91,5.18c1.48,0.96,3.23,1.31,5.22,0.93c2.02-0.37,3.78-1.34,5.19-2.88
						c1.49-1.62,2.19-3.58,2.15-5.85l-1.57,1.74l14.75-1.23L299.21,231.62z M284.44,233.21c0.02,1.41-0.37,2.54-1.27,3.47
						c-0.92,1.03-2.02,1.66-3.28,1.88c-1.09,0.19-1.97,0.06-2.65-0.44c-0.73-0.49-1.23-1.45-1.48-2.9c-0.12-0.77-0.18-1.57-0.1-2.42
						l-1.44,1.62l27.03-4.93l1.35-0.22l0.05-1.37c0.14-3.7-0.07-6.97-0.58-9.76c-1.05-5.82-3.44-10.16-7.07-12.9
						c-3.83-2.9-8.97-3.79-15.31-2.65c-7.03,1.27-12.78,5.2-17.14,11.65c-4.07,5.93-6.22,12.87-6.34,20.67
						c-0.04,1.47,0.05,2.99,0.3,4.4c1,5.52,4.01,9.68,8.93,12.45c4.42,2.49,9.45,3.26,14.95,2.29c5.24-0.98,9.85-3.29,13.72-6.83
						c4.32-3.98,7.18-8.97,8.45-14.86l0.49-2.27l-2.3,0.2l-14.72,1.22l-1.62,0.15L284.44,233.21z"/>
				</g>
				<g>
					<path class="st3" d="M287.48,222.26c0.06-0.59,0.07-1.1,0-1.66c0-0.52-0.06-1.07-0.15-1.57c-0.38-2.05-1.23-3.64-2.49-4.66
						c-1.37-1.07-2.93-1.45-4.66-1.17c-1.98,0.36-3.76,1.54-5.29,3.59c-1.51,1.95-2.38,4.44-2.58,7.34l-0.15,2.22l2.19-0.42
						l11.76-2.09l1.31-0.27L287.48,222.26z M275.7,224.38c0.17-2.25,0.81-4.12,1.89-5.51c1.02-1.34,2.09-2.11,3.17-2.32
						c0.74-0.13,1.34,0.03,1.88,0.48c0.62,0.5,1.08,1.38,1.31,2.66c0.04,0.32,0.12,0.7,0.12,1.13c0.02,0.42,0.02,0.76-0.01,1.21
						l1.38-1.58l-11.76,2.14L275.7,224.38z"/>
				</g>
			</g>
			<g>
				<g>
					<path class="st3" d="M344.73,237.74l-15.96,2.9l2.03,1.71l0.74-30.94v0.24c0.05-0.36,0.05-0.77-0.01-1.16
						c-0.07-0.24-0.1-0.43-0.17-0.59l0.07,0.21c-0.27-1.59-1.17-2.37-1.88-2.76c-0.92-0.46-1.9-0.6-2.99-0.41
						c-1.39,0.24-2.68,0.96-3.9,2.1c-1.28,1.23-1.93,2.66-1.98,4.27l-0.73,30.32l1.4-1.66l-16.02,2.9l2.03,1.71l1.11-45.72
						l-1.4,1.63l14.74-2.67l-2.03-1.71l-0.08,4.94l3.25,0.76c0.93-1.91,2.37-3.53,4.36-4.94c2.01-1.38,4.17-2.27,6.44-2.71
						c2.57-0.46,4.6-0.19,6.24,0.85c1.97,1.25,3.22,3.35,3.77,6.41c0.22,1.24,0.35,2.71,0.39,4.32c0-0.06-0.84,31.64-0.84,31.64
						L344.73,237.74z M347.54,207.7c0-1.83-0.14-3.48-0.39-4.91c-0.75-4-2.53-6.88-5.32-8.66c-2.33-1.48-5.26-1.91-8.66-1.34
						c-2.77,0.52-5.42,1.64-7.83,3.28c-2.46,1.72-4.29,3.83-5.47,6.24l3.26,0.77l0.09-4.91l0.04-2.09l-2.07,0.38l-14.73,2.67
						l-1.38,0.24l-0.01,1.38l-1.12,45.75l-0.07,2.09l2.07-0.39l16.03-2.9l1.38-0.2l0.02-1.41l0.74-30.3
						c0.02-0.71,0.33-1.29,0.97-1.91c0.68-0.68,1.4-1.08,2.1-1.21c0.42-0.06,0.63,0,0.71,0.08c0.07,0.02,0.14,0.22,0.16,0.39
						l0.01,0.1l0.05,0.09c-0.05-0.09-0.03-0.04,0,0.17c0,0.07,0,0.02,0,0.02v0.12v0.1l-0.77,30.95l-0.06,2.1l2.09-0.42l15.96-2.85
						l1.37-0.31l0.03-1.36C346.74,239.45,347.54,207.77,347.54,207.7z"/>
				</g>
			</g>
			<g>
				<g>
					<path class="st3" d="M365.34,186.48l-7.74,15.36l1.25-0.94l-6.93,1.19l1.85,2.37l5.89-13.66l1.27-2.95l-3.15,0.57l-4.87,0.94
						l2.01,1.69l0.38-14.76l-1.4,1.62l13.48-2.44l-2.01-1.69l-0.25,13.39L365.34,186.48z M366.78,172.13l-13.48,2.45l-1.39,0.24
						l-0.02,1.39l-0.38,14.77l-0.04,2.09l2.08-0.38l4.87-0.89l-1.91-2.36l-5.88,13.64l-1.24,2.93l3.1-0.55l6.94-1.18l0.87-0.18
						l0.38-0.74l7.71-15.37l0.16-0.34l0.02-0.38l0.24-13.42l0.04-2.07L366.78,172.13z"/>
				</g>
			</g>
			<g>
				<g>
					<path class="st3" d="M410.32,213.74c-0.05,4.37-1.96,8.04-5.8,11.24c-3.53,3.02-7.86,4.99-12.92,5.91
						c-4.7,0.82-8.87,0.61-12.35-0.75c-3.63-1.43-5.72-3.76-6.32-7.03c-0.13-0.64-0.13-0.87-0.12-0.92l-1.17,1.5l12.38-4.33
						l-2.23-1.3c0.4,2.33,1.91,3.98,4.3,4.72c1.86,0.56,4.02,0.64,6.38,0.16c1.88-0.33,3.5-0.87,4.82-1.6
						c1.78-0.94,2.64-2.16,2.52-3.54V218c0.03-1.08-0.31-2.06-1.05-2.79c-1.17-1.21-3.14-1.76-6.26-1.74
						c-8.74,0-10.55-0.2-10.92-0.28c-3.66-0.75-5.66-2.71-6.27-6.19c-0.11-0.52-0.17-1.06-0.24-1.62c-0.03-0.56-0.03-1.15,0-1.77
						c0.16-4.96,1.91-9,5.34-12.41c3.28-3.15,7.09-5.12,11.7-5.96c3.91-0.69,7.56-0.38,10.84,0.94c3.16,1.34,5.28,3.57,6.44,6.82
						l0.97-2.15l-12.31,5.03l2.23,0.9c-0.81-1.82-2.07-3.07-3.71-3.76c-1.56-0.62-3.31-0.76-5.17-0.41
						c-1.43,0.23-2.78,0.75-3.94,1.53c-1.41,0.95-2.14,2.07-2.14,3.33c0,1.06,0.41,2.03,1.17,2.75c1.19,1.14,3.16,1.56,6.22,1.37
						c7.1-0.49,9.75-0.35,10.73-0.18c3.63,0.76,5.69,3.06,6.46,7.23C410.2,210.26,410.32,211.97,410.32,213.74z M413.29,208.07
						c-1.01-5.49-4.17-8.92-9.18-9.95c-1.11-0.22-3.52-0.44-11.65,0.1c-2.81,0.2-3.52-0.33-3.62-0.43
						c-0.03-0.04-0.06-0.07-0.06-0.28c0,0.02-0.02,0.06-0.02,0.06s0.08-0.21,0.63-0.58c0.73-0.47,1.59-0.82,2.61-0.99
						c1.25-0.24,2.35-0.17,3.27,0.23c0.81,0.31,1.45,0.94,1.87,1.94l0.66,1.52l1.56-0.64l12.32-5.01l1.52-0.64l-0.55-1.52
						c-1.53-4.16-4.33-7.12-8.4-8.78c-3.87-1.59-8.16-1.99-12.74-1.19c-5.22,0.95-9.75,3.29-13.49,6.91
						c-4.04,3.97-6.18,8.93-6.32,14.62c-0.1,0.71-0.09,1.52,0,2.26c0.03,0.68,0.14,1.3,0.25,1.93c0.87,4.79,3.96,7.85,8.96,8.88
						c0.74,0.14,2.71,0.32,11.61,0.35c2.96-0.03,3.69,0.59,3.8,0.7c0.03,0.02,0.1,0.08,0.09,0.31V218l0.02,0.11
						c-0.02-0.17,0.03-0.29,0.03-0.32c0,0-0.15,0.22-0.78,0.58c-0.99,0.53-2.26,0.95-3.78,1.22c-1.86,0.35-3.49,0.34-4.77-0.03
						c-1.12-0.39-1.75-1.02-1.94-2.09l-0.34-1.98l-1.93,0.65l-12.39,4.34l-1.05,0.36l-0.06,1.14c-0.06,0.43,0,0.92,0.14,1.72
						c0.81,4.52,3.7,7.71,8.47,9.59c4.08,1.59,8.86,1.9,14.23,0.95c5.66-1.03,10.53-3.28,14.51-6.65c4.56-3.83,6.93-8.47,7.02-13.78
						C413.79,211.76,413.61,209.84,413.29,208.07z"/>
				</g>
			</g>
		</g>
	</g>
	<g>
		<g>
			<g>
				<path class="st1" d="M226.82,260.8l-15.4,2.78c-0.1-0.14-0.19-0.52-0.29-1.01c-0.1-0.58-0.18-1.24-0.22-2
					c-0.04-0.73-0.04-1.78,0.05-3.18c-0.63,2.27-2.31,4.38-5.11,6.36c-2.79,2.01-5.73,3.29-8.89,3.85c-3.12,0.55-5.8,0.28-8.07-0.87
					c-2.46-1.34-4.02-3.7-4.64-7.06c-0.18-0.92-0.28-1.93-0.3-3.01c0.19-6.85,3.39-12.27,9.55-16.25c4.26-2.77,9.8-4.75,16.63-5.99
					c0.28-1.13,0.35-2.11,0.22-2.85c-0.22-1.08-0.69-1.75-1.51-2.17c-0.77-0.41-1.72-0.5-2.76-0.31c-1.5,0.27-2.9,1.02-4.18,2.19
					c-1.24,1.2-1.96,2.63-2.18,4.25l-14.72,0.61c1.45-4.95,4.35-9.08,8.7-12.4c3.84-2.97,8.27-4.94,13.24-5.83
					c4.68-0.86,8.81-0.65,12.42,0.63c3.6,1.29,5.66,3.44,6.21,6.47c0.12,0.75,0.19,1.3,0.12,1.68l-0.69,27.44
					c0,0.28,0.02,0.69,0.1,1.23c0.07,0.51,0.15,0.97,0.2,1.3c0.14,0.89,0.42,1.72,0.78,2.52
					C226.46,259.98,226.72,260.54,226.82,260.8z M209.97,246.28l0.09-3.41c-3.49,1.29-6.11,2.74-7.76,4.39
					c-1.53,1.41-2.29,2.83-2.33,4.28c0.07,1.32,0.59,2.37,1.55,3.09c0.95,0.76,2.06,1.03,3.32,0.79c1.42-0.25,2.54-1.06,3.38-2.41
					C209.32,251.44,209.88,249.19,209.97,246.28z"/>
			</g>
		</g>
		<g>
			<g>
				<path class="st1" d="M256.1,224.83c-1.44-0.24-2.71-0.27-3.84-0.06c-2.07,0.36-3.74,1.4-4.93,3c-1.2,1.63-1.83,3.82-1.92,6.61
					l-0.53,23.18l-16.08,2.92l1.12-45.76l13.63-2.46l-0.23,7.76c0.86-3.51,2.27-6.22,4.2-8.15c1.88-1.93,4.21-3.12,6.97-3.63
					c0.26-0.27,0.47-0.44,0.68-0.46c0.53,0.07,1,0.1,1.35,0.1L256.1,224.83z"/>
			</g>
		</g>
		<g>
			<g>
				<path class="st1" d="M300.88,231.99c-1.19,5.58-3.85,10.23-7.94,13.98c-3.66,3.39-7.97,5.49-12.9,6.4
					c-5.07,0.91-9.67,0.21-13.78-2.12c-4.45-2.48-7.13-6.24-8.05-11.23c-0.23-1.28-0.34-2.64-0.3-4.11
					c0.14-7.44,2.17-14.02,6.09-19.72c4.06-6.1,9.43-9.74,16.03-10.93c5.85-1.04,10.48-0.3,13.93,2.33
					c3.3,2.48,5.45,6.44,6.43,11.88c0.49,2.69,0.67,5.79,0.54,9.36l-27,4.9c-0.06,0.98,0,1.9,0.13,2.8c0.38,1.91,1.1,3.27,2.19,4
					c1.11,0.75,2.4,0.98,3.97,0.72c1.59-0.32,3.04-1.09,4.19-2.37c1.21-1.3,1.79-2.85,1.75-4.66L300.88,231.99z M285.8,222.15
					c0.01-0.47,0.04-0.92,0-1.42c-0.01-0.51-0.06-0.96-0.18-1.38c-0.31-1.67-0.95-2.91-1.89-3.67c-0.95-0.76-2.03-1.01-3.28-0.8
					c-1.51,0.28-2.91,1.25-4.21,2.94c-1.32,1.67-2.05,3.85-2.25,6.44L285.8,222.15z"/>
			</g>
		</g>
		<g>
			<g>
				<path class="st1" d="M345.04,239.42l-15.98,2.87l0.77-30.9c0.03-0.2,0.01-0.36,0-0.56c-0.05-0.22-0.07-0.37-0.08-0.43
					c-0.15-0.76-0.46-1.27-1.02-1.57c-0.51-0.29-1.13-0.37-1.85-0.24c-1.06,0.19-2.07,0.76-3,1.66c-0.97,0.93-1.44,1.96-1.49,3.1
					l-0.74,30.29l-16.01,2.88l1.14-45.75l14.71-2.65l-0.09,4.93c1.04-2.17,2.7-4.02,4.91-5.57c2.23-1.55,4.63-2.53,7.14-2.99
					c2.99-0.54,5.48-0.15,7.44,1.09c2.39,1.49,3.92,4.01,4.56,7.51c0.24,1.38,0.36,2.93,0.38,4.63L345.04,239.42z"/>
			</g>
		</g>
		<g>
			<g>
				<path class="st1" d="M366.86,187.23l-7.73,15.36l-6.94,1.21l5.91-13.69l-4.89,0.89l0.38-14.73l13.5-2.46L366.86,187.23z"/>
			</g>
		</g>
		<g>
			<g>
				<path class="st1" d="M412.05,213.78c-0.05,4.84-2.22,8.98-6.42,12.53c-3.75,3.18-8.32,5.27-13.72,6.26
					c-5.09,0.92-9.5,0.61-13.27-0.87c-4.23-1.64-6.69-4.4-7.42-8.3c-0.13-0.59-0.17-1.04-0.13-1.31l12.37-4.34
					c0.34,1.71,1.41,2.85,3.19,3.43c1.55,0.46,3.37,0.49,5.53,0.07c1.72-0.29,3.12-0.76,4.27-1.42c1.16-0.6,1.72-1.23,1.65-1.89
					c0.09-1.87-1.75-2.78-5.57-2.75c-6.59-0.01-10.36-0.13-11.31-0.31c-4.29-0.9-6.87-3.43-7.59-7.54c-0.1-0.53-0.2-1.11-0.27-1.78
					c-0.04-0.64-0.04-1.32,0-2.07c0.17-5.29,2.12-9.77,5.86-13.46c3.49-3.41,7.69-5.54,12.6-6.44c4.27-0.77,8.2-0.4,11.77,1.07
					c3.6,1.5,6.08,4.09,7.44,7.8l-12.33,5.03c-0.62-1.4-1.54-2.33-2.77-2.84c-1.25-0.51-2.64-0.6-4.21-0.32
					c-1.3,0.2-2.38,0.67-3.31,1.26c-0.91,0.61-1.35,1.23-1.35,1.92c-0.01,1.85,1.82,2.66,5.5,2.41c5.91-0.41,9.65-0.45,11.21-0.11
					c4.33,0.89,6.95,3.76,7.82,8.58C411.9,210.06,412.05,211.86,412.05,213.78z"/>
			</g>
		</g>
	</g>
	<g>
		<g>
			<path class="st0" d="M291.56,278.7c-0.14,3.01-1.37,5.6-3.73,7.76c-2,1.85-4.23,2.96-6.66,3.41l-6.42,1.12l-0.56,10.81
				l-9.58,1.68l1.53-30.32l13.3-2.37c7.15-1.24,11.15,0.43,11.98,5.01c0.11,0.63,0.2,1.09,0.2,1.4
				C291.68,277.51,291.65,278.01,291.56,278.7z M282.11,280.24c0-0.36,0-0.6-0.02-0.73c-0.13-0.68-0.39-1.15-0.84-1.48
				c-0.42-0.35-1.02-0.45-1.83-0.34l-4.08,0.72l-0.3,5.93l4.44-0.78c0.75-0.15,1.35-0.53,1.87-1.17
				C281.81,281.76,282.1,281.03,282.11,280.24z"/>
			<path class="st0" d="M287.6,278.5c-0.06,2-0.89,3.62-2.47,5.07c-1.45,1.36-2.97,2.15-4.65,2.44l-6.42,1.15l-3.08,0.53l-0.17,3.14
				l-0.55,10.79l3.22-3.67l-9.59,1.7l4.63,4.08l1.55-30.37l-3.26,3.67l13.32-2.37c6.85-1.2,7.24,0.94,7.39,1.83
				c0.11,0.68,0.11,0.91,0.14,0.93v0.08c0,0.04,0,0.13,0,0.13c0-0.03,0-0.09,0-0.09s0,0.23-0.02,0.83v0.06L287.6,278.5z
				 M295.58,276.98c-0.04-0.45-0.12-1.01-0.29-1.88c-0.6-3.24-3.35-10.51-16.51-8.16l-13.34,2.35l-3.08,0.52l-0.17,3.15l-1.52,30.36
				l-0.27,4.9l4.9-0.85l9.6-1.7l3.1-0.53l0.16-3.12l0.53-10.82l-3.24,3.67l6.44-1.13c3.15-0.56,6.06-2.05,8.62-4.41
				c3.14-2.87,4.81-6.38,5.02-10.43l-0.02,0.13c0.11-0.95,0.11-1.68,0.04-2.27L295.58,276.98z"/>
			<path class="st0" d="M286.08,280.21c0-0.6-0.04-1.02-0.09-1.41c-0.36-2.01-1.44-3.22-2.31-3.88c-0.92-0.72-2.53-1.51-4.91-1.08
				l-4.12,0.71l-3.1,0.58l-0.14,3.1l-0.3,5.91l-0.21,4.93l4.86-0.9l4.42-0.77c1.78-0.3,3.25-1.23,4.34-2.71
				c0.96-1.32,1.49-2.74,1.55-4.28v-0.11V280.21z M278.17,280.05c0.1-0.11,0.37-0.3,0.64-0.33l-4.41,0.74l4.63,4.03l0.26-5.86
				l-3.23,3.68l4.07-0.76h0c-0.12,0.02-0.73,0-1.31-0.42c-0.39-0.34-0.61-0.79-0.64-0.98c-0.02-0.05-0.02-0.12-0.02-0.12
				s0,0.08,0.02,0.25v-0.24c0,0,0-0.02,0.01-0.04C278.2,280.01,278.18,280.03,278.17,280.05z"/>
		</g>
		<g>
			<path class="st0" d="M311.24,295.25l-9.26,1.65l1.53-30.35l9.24-1.64L311.24,295.25z"/>
			<path class="st0" d="M310.53,291.4l-9.25,1.62l4.65,4.05l1.55-30.34l-3.28,3.68l9.25-1.65l-4.65-4.06l-1.56,30.36L310.53,291.4z
				 M312.04,261.05l-9.23,1.61l-3.09,0.54l-0.16,3.15l-1.52,30.37l-0.25,4.9l4.88-0.85l9.25-1.67l3.09-0.53l0.13-3.13l1.55-30.34
				l0.28-4.93L312.04,261.05z"/>
		</g>
		<g>
			<path class="st0" d="M347.14,288.89l-24.89,4.39l0.31-5.57l14.18-20.15l-12.31,2.19l0.38-6.99l23.54-4.16l-0.28,5.6l-13.79,19.75
				l13.3-2.34L347.14,288.89z"/>
			<path class="st0" d="M346.49,285.02l-24.92,4.4l4.63,4.08l0.3-5.55l-0.7,2.03l14.23-20.17l5.44-7.8l-9.41,1.67l-12.31,2.21
				l4.64,4.08l0.36-6.99l-3.27,3.67l23.57-4.19l-4.63-4.06l-0.29,5.6l0.71-2.01l-13.8,19.72l-5.42,7.76l9.36-1.64l13.3-2.38
				l-4.65-4.05l-0.37,7.29L346.49,285.02z M346.86,277.72l-13.28,2.37l3.94,6.09l13.78-19.74l0.66-0.94l0.04-1.07l0.3-5.63
				l0.26-4.92l-4.89,0.85l-23.57,4.18l-3.1,0.58l-0.16,3.1l-0.36,6.99l-0.26,4.94l4.89-0.86l12.36-2.24l-3.98-6.08l-14.15,20.17
				l-0.66,0.93l-0.05,1.11l-0.31,5.54l-0.27,4.96l4.89-0.86l24.91-4.41l3.08-0.55l0.17-3.1l0.41-7.31l0.27-4.94L346.86,277.72z"/>
		</g>
		<g>
			<path class="st0" d="M381.76,282.76l-24.91,4.42l0.3-5.56l14.19-20.2l-12.3,2.19l0.36-6.98l23.56-4.16l-0.3,5.62l-13.78,19.73
				l13.26-2.34L381.76,282.76z"/>
			<path class="st0" d="M381.07,278.9l-24.91,4.42l4.63,4.09l0.31-5.58l-0.71,2.04l14.18-20.2l5.49-7.77l-9.42,1.67l-12.31,2.18
				l4.63,4.08l0.36-6.97l-3.25,3.66l23.57-4.18l-4.67-4.06l-0.28,5.64l0.69-2.05l-13.78,19.74l-5.39,7.77l9.35-1.68l13.26-2.35
				l-4.63-4.06l-0.41,7.29L381.07,278.9z M381.47,271.61l-13.27,2.36l3.94,6.08l13.77-19.74l0.63-0.93l0.09-1.08l0.28-5.62
				l0.27-4.95l-4.91,0.87l-23.57,4.19l-3.09,0.53l-0.16,3.12l-0.36,6.98l-0.25,4.93l4.91-0.87l12.31-2.15l-3.94-6.14l-14.19,20.17
				l-0.63,0.9l-0.07,1.14l-0.3,5.57l-0.29,4.95l4.93-0.9l24.92-4.38l3.07-0.56l0.17-3.09l0.4-7.29l0.24-4.97L381.47,271.61z"/>
		</g>
		<g>
			<path class="st0" d="M419.43,276.09l-9.23,1.63l-1.37-5.59l-7.91,1.39l-1.98,6.21l-7.49,1.32l10.43-31.93l9.87-1.77
				L419.43,276.09z M407.47,265.77l-2-7.63l-2.44,8.4L407.47,265.77z"/>
			<path class="st0" d="M418.73,272.22l-9.24,1.63l4.54,2.95l-1.36-5.58l-0.87-3.61l-3.66,0.62l-7.9,1.43l-2.36,0.41l-0.73,2.26
				l-1.98,6.21l3.08-2.67l-7.52,1.34l4.46,5.07l10.42-31.95l-3.06,2.68l9.85-1.75l-4.49-2.88l7.7,28.73L418.73,272.22z
				 M411.04,243.51l-9.86,1.75l-2.36,0.41l-0.7,2.26l-10.43,31.9l-2.05,6.23l6.5-1.12l7.51-1.36l2.36-0.42l0.74-2.24l1.96-6.21
				l-3.08,2.69l7.92-1.41l-4.56-2.94l1.38,5.63l0.86,3.58l3.65-0.63l9.25-1.67l4.24-0.73l-1.11-4.13l-7.7-28.72l-0.94-3.5
				L411.04,243.51z"/>
			<path class="st0" d="M411.29,264.77l-1.99-7.62l-3.65-13.88l-3.96,13.78l-2.44,8.43l-1.76,6.04l6.26-1.09l4.43-0.8l4.2-0.72
				L411.29,264.77z M406.83,267.61l2.44-8.39l-7.65-0.09l2.03,7.62l3.12-4.84l-4.44,0.76L406.83,267.61z"/>
		</g>
	</g>
	<g>
		<g>
			<path class="st1" d="M291.56,278.7c-0.14,3.01-1.37,5.6-3.73,7.76c-2,1.85-4.23,2.96-6.66,3.41l-6.42,1.12l-0.56,10.81
				l-9.58,1.68l1.53-30.32l13.3-2.37c7.15-1.24,11.15,0.43,11.98,5.01c0.11,0.63,0.2,1.09,0.2,1.4
				C291.68,277.51,291.65,278.01,291.56,278.7z M282.11,280.24c0-0.36,0-0.6-0.02-0.73c-0.13-0.68-0.39-1.15-0.84-1.48
				c-0.42-0.35-1.02-0.45-1.83-0.34l-4.08,0.72l-0.3,5.93l4.44-0.78c0.75-0.15,1.35-0.53,1.87-1.17
				C281.81,281.76,282.1,281.03,282.11,280.24z"/>
		</g>
		<g>
			<path class="st1" d="M311.24,295.25l-9.26,1.65l1.53-30.35l9.24-1.64L311.24,295.25z"/>
		</g>
		<g>
			<path class="st1" d="M347.14,288.89l-24.89,4.39l0.31-5.57l14.18-20.15l-12.31,2.19l0.38-6.99l23.54-4.16l-0.28,5.6l-13.79,19.75
				l13.3-2.34L347.14,288.89z"/>
		</g>
		<g>
			<path class="st1" d="M381.76,282.76l-24.91,4.42l0.3-5.56l14.19-20.2l-12.3,2.19l0.36-6.98l23.56-4.16l-0.3,5.62l-13.78,19.73
				l13.26-2.34L381.76,282.76z"/>
		</g>
		<g>
			<path class="st1" d="M419.43,276.09l-9.23,1.63l-1.37-5.59l-7.91,1.39l-1.98,6.21l-7.49,1.32l10.43-31.93l9.87-1.77
				L419.43,276.09z M407.47,265.77l-2-7.63l-2.44,8.4L407.47,265.77z"/>
		</g>
	</g>
</g>
</svg>
