<?xml version="1.0" encoding="utf-8"?>
<!-- Generator: Adobe Illustrator 25.2.1, SVG Export Plug-In . SVG Version: 6.00 Build 0)  -->
<svg version="1.1" id="Capa_1" xmlns="http://www.w3.org/2000/svg" xmlns:xlink="http://www.w3.org/1999/xlink" x="0px" y="0px"
	 viewBox="0 0 73.35 73.35" style="enable-background:new 0 0 73.35 73.35;" xml:space="preserve">
<style type="text/css">
	.st0{fill:#FEE610;}
	.st1{fill:#FEE400;}
	.st2{font-family:'Montserrat-BoldItalic';}
	.st3{font-size:4.7528px;}
</style>
<g>
	<path class="st0" d="M64.84,30.95c0,15.19-12.55,27.61-27.92,27.59C21.51,58.51,8.94,45.73,9.22,29.91
		C9.48,15.24,22.03,2.84,37.1,2.87C52.52,2.9,64.84,15.37,64.84,30.95z M36.96,57.8c14.76,0.09,27.3-12.2,27.2-26.84
		C64.05,14.82,51.15,3.7,37.22,3.65C22.24,3.59,10.44,15.62,9.96,29.58C9.43,45.27,21.87,57.79,36.96,57.8z"/>
	<path class="st1" d="M62.68,30.94c-0.06,13.99-11.61,25.39-25.68,25.41C23,56.36,10.93,44.85,11.41,29.66
		C11.83,16.34,22.99,4.99,37.17,5.07C51.39,5.15,62.74,16.67,62.68,30.94z"/>
</g>
<g>
	<path d="M53,14.17c0.09,0.04,0.17,0.09,0.26,0.13c0.61,0.28,1.01,0.74,1.02,1.42c0.03,1.55,0.03,3.11,0,4.66
		c-0.01,0.87-0.62,1.48-1.5,1.59c-0.11,0.01-0.23,0.04-0.34,0.02c-0.96-0.14-1.75,0.19-2.54,0.73c-1.24,0.85-2.55,1.61-3.83,2.41
		c-0.09,0.06-0.19,0.11-0.35,0.21c0.19-1.14,0.38-2.22,0.57-3.34c-0.47,0-0.91,0.01-1.36,0c-0.87-0.02-1.51-0.46-1.72-1.2
		c-0.06-0.22-0.08-0.47-0.08-0.7c-0.01-1.25,0.03-2.5-0.01-3.75c-0.04-1.05,0.31-1.82,1.35-2.17C47.31,14.17,50.15,14.17,53,14.17z
		 M47.62,20.86c-0.12,0.74-0.24,1.44-0.36,2.21c0.73-0.45,1.42-0.82,2.04-1.28c0.96-0.72,1.98-1.1,3.19-0.94
		c0.5,0.06,0.71-0.19,0.71-0.71c0-1.37,0-2.75,0-4.12c0-0.54-0.19-0.73-0.74-0.73c-2.49,0-4.98,0-7.47,0
		c-0.55,0-0.73,0.18-0.73,0.73c0,1.36,0,2.73,0,4.09c0,0.57,0.18,0.75,0.74,0.75C45.86,20.87,46.71,20.86,47.62,20.86z"/>
	<path d="M47.78,44.33c-3.97,0-7.91,0-11.96,0c0.35,0.29,0.63,0.52,0.94,0.78c-1.16,1.04-2.17,2.05-3.3,2.93
		c-1.43,1.12-3.5,0.97-4.85-0.26c-0.53-0.49-1.03-1.01-1.54-1.52c-2.01-2.01-4.02-4.02-6.03-6.03c-1.74-1.74-1.74-4.08,0-5.82
		c0.77-0.77,1.55-1.55,2.29-2.29c1.38,1.38,2.74,2.74,4.21,4.21c-0.09,0.06-0.25,0.13-0.37,0.24c-0.59,0.57-1.17,1.16-1.75,1.74
		c-0.35,0.35-0.34,0.64,0,0.99c0.58,0.59,1.17,1.18,1.79,1.8c0.06-0.17,0.11-0.28,0.14-0.39c0.54-1.71,1.7-2.67,3.46-2.95
		c1.12-0.18,2.23-0.4,3.45-0.62c-0.11-0.17-0.16-0.32-0.26-0.39c-1.26-0.83-2.08-1.97-2.46-3.43c-0.03-0.11-0.16-0.24-0.27-0.28
		c-0.91-0.34-1.49-0.99-1.52-1.96c-0.05-1.61-0.09-3.23,0.04-4.83c0.28-3.31,2.86-5.94,6.15-6.42c3.82-0.55,7.42,1.98,8.16,5.75
		c0.11,0.54,0.14,1.1,0.14,1.65c0.02,2.07,0.01,4.15,0.01,6.22c0,1.27-0.67,1.97-1.94,1.93c-0.58-0.02-1.02,0.07-1.39,0.57
		c-0.23,0.31-0.6,0.5-0.9,0.76c-0.1,0.09-0.16,0.22-0.24,0.32c0.12,0.06,0.23,0.16,0.35,0.18c1.09,0.21,2.19,0.4,3.29,0.61
		c1.51,0.28,2.55,1.14,3.08,2.58c0.45,1.25,0.85,2.52,1.27,3.78C47.78,44.21,47.78,44.25,47.78,44.33z M32.55,41.03
		c0.66,0.66,1.3,1.3,1.93,1.94c0.16,0.17,0.33,0.24,0.56,0.23c3.62-0.01,7.23,0,10.85,0c0.11,0,0.22,0,0.42,0
		c-0.39-1.04-0.7-2.04-1.14-2.98c-0.31-0.67-0.93-1.08-1.65-1.23c-1.2-0.25-2.41-0.44-3.61-0.69c-0.37-0.08-0.6,0-0.85,0.27
		c-0.66,0.7-1.36,1.37-2.12,2.13c-0.09-0.13-0.14-0.25-0.23-0.33c-0.65-0.66-1.3-1.32-1.96-1.96c-0.1-0.1-0.3-0.16-0.44-0.14
		c-1.09,0.18-2.17,0.41-3.26,0.58c-1.38,0.21-2.22,0.96-2.68,2.29c-0.23,0.66-0.2,1.11,0.38,1.51c0.16,0.11,0.27,0.27,0.41,0.4
		c0.43,0.43,0.66,0.43,1.12,0.02C31.03,42.4,31.77,41.73,32.55,41.03z M43.13,28.98c0-0.71,0-1.39,0-2.06
		c0-0.73-0.15-1.43-0.41-2.11c-0.86-2.32-3.18-3.92-5.71-3.94c-2.5-0.01-4.84,1.6-5.74,3.9c-0.52,1.35-0.42,2.74-0.41,4.14
		c0,0.02,0.02,0.03,0.02,0.03c0.54-0.01,0.57-0.36,0.51-0.81c2.3,0.15,4.12-0.76,5.58-2.47c0.76,0.81,1.53,1.51,2.51,1.94
		c0.98,0.44,2.01,0.56,3.09,0.53c0,0.24,0,0.44,0,0.63C42.76,28.83,42.92,28.89,43.13,28.98z M37.01,34.27c0.16,0,0.28,0,0.4,0
		c1.06,0,2.12,0,3.18,0c0.19,0,0.33-0.03,0.38-0.23c0.15-0.57,0.4-1.13,0.44-1.71c0.08-0.94,0.03-1.89,0.05-2.84
		c0-0.23-0.1-0.26-0.3-0.31c-0.6-0.13-1.21-0.25-1.79-0.44c-0.9-0.3-1.66-0.84-2.35-1.47c-0.05,0.02-0.08,0.03-0.11,0.05
		c-1.19,1.07-2.57,1.72-4.17,1.89c-0.08,0.01-0.21,0.17-0.21,0.26c0,1-0.05,2.01,0.04,3.01c0.16,1.73,1.08,2.97,2.66,3.66
		c1.55,0.67,3.06,0.47,4.44-0.52c0.07-0.05,0.16-0.07,0.23-0.11c-0.03-0.04-0.06-0.08-0.09-0.12c-0.93,0-1.86,0-2.81,0
		C37.01,35.01,37.01,34.66,37.01,34.27z M21.98,35.09c-1.37,1.23-1.5,2.99-0.24,4.25c2.48,2.51,4.97,5.01,7.48,7.48
		c1.26,1.24,3.21,1.09,4.2-0.21c-0.85-0.85-1.7-1.7-2.55-2.55c-0.85,0.65-1.67,0.6-2.46-0.19c-0.54-0.54-1.08-1.08-1.63-1.63
		c-0.76-0.76-1.53-1.5-2.26-2.28c-0.59-0.62-0.62-1.49-0.11-2.16c0.05-0.06,0.09-0.13,0.12-0.18
		C23.68,36.77,22.84,35.94,21.98,35.09z M34.38,45.78c0.22-0.21,0.45-0.42,0.61-0.57c-0.86-0.87-1.7-1.71-2.55-2.56
		c-0.19,0.18-0.42,0.39-0.62,0.57C32.68,44.08,33.51,44.91,34.38,45.78z M22.89,34.21c0.84,0.84,1.69,1.69,2.5,2.5
		c0.15-0.14,0.34-0.33,0.5-0.48c-0.83-0.83-1.67-1.67-2.5-2.5C23.22,33.88,23.03,34.06,22.89,34.21z M35.42,37.39
		c0.54,0.54,1.08,1.08,1.56,1.56c0.51-0.51,1.04-1.04,1.55-1.55C37.52,37.69,36.46,37.68,35.42,37.39z M42.15,34.23
		c0.89,0.12,1.14-0.24,0.93-1.37c-0.22,0.12-0.52,0.18-0.61,0.36C42.3,33.52,42.25,33.89,42.15,34.23z M31.39,29.99
		c-0.38,0.24-0.54,0.56-0.53,0.95c0.01,0.38,0.16,0.68,0.53,0.9C31.39,31.22,31.39,30.63,31.39,29.99z M42.61,30.01
		c0,0.62,0,1.22,0,1.83C43.31,31.33,43.3,30.48,42.61,30.01z"/>
	<path d="M22.96,27.96c0.49-0.29,0.96-0.57,1.46-0.86c0.19,0.32,0.38,0.62,0.57,0.95c-1.1,0.66-2.18,1.31-3.27,1.96
		c-0.66-1.09-1.3-2.16-1.96-3.27c0.32-0.19,0.62-0.37,0.95-0.58c0.34,0.57,0.68,1.13,1.05,1.75c1.14-4.4,3.58-7.77,7.47-10
		c3.9-2.24,8.04-2.62,12.39-1.39c-0.12,0.38-0.22,0.71-0.33,1.06c-4.84-1.31-9.27-0.57-13.25,2.47
		C25.2,22.23,23.5,25.38,22.96,27.96z"/>
	<path d="M49.16,41.34c-0.31-0.25-0.58-0.47-0.87-0.7c3.15-4.18,3.99-8.77,2.46-13.87c-0.35,0.59-0.66,1.1-0.99,1.64
		c-0.33-0.2-0.63-0.38-0.96-0.58c0.66-1.09,1.3-2.16,1.96-3.27c1.09,0.65,2.16,1.3,3.27,1.96c-0.19,0.32-0.37,0.63-0.57,0.96
		c-0.54-0.32-1.06-0.63-1.62-0.96C53.45,31.93,52.55,36.84,49.16,41.34z"/>
	<path d="M45.39,16.42c2.22,0,4.43,0,6.66,0c0,0.36,0,0.7,0,1.08c-2.22,0-4.42,0-6.66,0C45.39,17.14,45.39,16.79,45.39,16.42z"/>
	<path d="M49.82,18.65c0,0.36,0,0.71,0,1.08c-1.47,0-2.94,0-4.43,0c0-0.36,0-0.71,0-1.08C46.87,18.65,48.33,18.65,49.82,18.65z"/>
	<path d="M50.99,18.64c0.36,0,0.69,0,1.05,0c0,0.36,0,0.71,0,1.09c-0.34,0-0.68,0-1.05,0C50.99,19.38,50.99,19.03,50.99,18.64z"/>
</g>
<g>
	<path class="st1" d="M62.7,70.92H11.35c-1.52,0-2.75-1.23-2.75-2.75v-1.6c0-1.52,1.23-2.75,2.75-2.75H62.7
		c1.52,0,2.75,1.23,2.75,2.75v1.6C65.45,69.69,64.22,70.92,62.7,70.92z"/>
	<g>
		<text transform="matrix(1 0 0 1 13.6882 69.0306)" class="st2 st3">Atención al cliente</text>
		<circle cx="62.63" cy="67.86" r="0.61"/>
		<circle cx="11.43" cy="67.86" r="0.61"/>
	</g>
</g>
<path class="st1" d="M40.19,63.82l-2.62-2.98c-0.29-0.32-0.79-0.32-1.08,0l-2.61,2.98"/>
</svg>
